<?xml version="1.0" encoding="UTF-8"?>
<svg xmlns="http://www.w3.org/2000/svg" xmlns:xlink="http://www.w3.org/1999/xlink" width="612" height="792" viewBox="0 0 612 792">
<path fill="none" stroke-width="12" stroke-linecap="butt" stroke-linejoin="miter" stroke="rgb(100%, 100%, 100%)" stroke-opacity="1" stroke-miterlimit="4" d="M 564.000024 536.000022 C 564.000024 538.552106 563.937523 541.104189 563.812523 543.656273 C 563.687523 546.203148 563.500023 548.750023 563.250023 551.29169 C 563.000023 553.833356 562.687523 556.364607 562.312523 558.890648 C 561.937523 561.41669 561.500023 563.932315 561.000023 566.432315 C 560.505232 568.937524 559.942732 571.427107 559.32294 573.906274 C 558.703148 576.380232 558.026065 578.838566 557.281273 581.286483 C 556.54169 583.729191 555.739606 586.151066 554.880231 588.552108 C 554.020856 590.958358 553.10419 593.338566 552.125023 595.697941 C 551.145856 598.057317 550.114606 600.39065 549.020856 602.697942 C 547.932314 605.005234 546.781273 607.286484 545.578148 609.536484 C 544.375023 611.791692 543.119814 614.010442 541.807314 616.197942 C 540.494814 618.390651 539.125022 620.546901 537.708356 622.666693 C 536.291689 624.791693 534.822939 626.880234 533.302106 628.92711 C 531.781272 630.979193 530.208355 632.98961 528.588564 634.963568 C 526.968772 636.937527 525.302105 638.869818 523.588563 640.765652 C 521.875022 642.656277 520.114605 644.505235 518.307313 646.307319 C 516.50523 648.11461 514.656271 649.875027 512.765646 651.588569 C 510.869813 653.302111 508.937521 654.968777 506.963563 656.588569 C 504.989604 658.208361 502.979188 659.781277 500.927104 661.302111 C 498.880229 662.822944 496.791687 664.291694 494.666687 665.708361 C 492.546896 667.125028 490.390645 668.49482 488.197937 669.80732 C 486.010437 671.11982 483.791687 672.375028 481.536478 673.578153 C 479.286478 674.781278 477.005228 675.93232 474.697936 677.020862 C 472.390645 678.114612 470.057311 679.145862 467.697936 680.125028 C 465.338561 681.104195 462.958353 682.020862 460.557311 682.880237 C 458.151061 683.739612 455.729186 684.541695 453.286477 685.281279 C 450.843769 686.02607 448.380227 686.703154 445.906269 687.322945 C 443.427102 687.942737 440.937518 688.505237 438.43231 689.000029 C 435.93231 689.500029 433.416685 689.937529 430.890643 690.312529 C 428.364601 690.687529 425.833351 691.000029 423.291684 691.250029 C 420.750018 691.500029 418.203142 691.687529 415.656267 691.812529 C 413.104184 691.937529 410.5521 692.000029 408.000017 692.000029 C 405.447934 692.000029 402.89585 691.937529 400.343767 691.812529 C 397.796892 691.687529 395.250016 691.500029 392.70835 691.250029 C 390.166683 691.000029 387.635433 690.687529 385.109391 690.312529 C 382.583349 689.937529 380.067724 689.500029 377.567724 689.000029 C 375.062516 688.505237 372.572932 687.942737 370.093765 687.322945 C 367.619807 686.703154 365.156265 686.02607 362.713557 685.281279 C 360.270848 684.541695 357.848973 683.739612 355.442723 682.880237 C 353.041681 682.020862 350.661473 681.104195 348.302098 680.125028 C 345.942723 679.145862 343.609389 678.114612 341.302098 677.020862 C 338.994806 675.93232 336.713556 674.781278 334.463556 673.578153 C 332.208347 672.375028 329.989597 671.11982 327.802097 669.80732 C 325.609389 668.49482 323.453138 667.125028 321.333347 665.708361 C 319.208347 664.291694 317.119805 662.822944 315.07293 661.302111 C 313.020846 659.781277 311.01043 658.208361 309.036471 656.588569 C 307.062513 654.968777 305.130221 653.302111 303.234388 651.588569 C 301.343763 649.875027 299.494804 648.11461 297.692721 646.307319 C 295.885429 644.505235 294.125012 642.656277 292.411471 640.765652 C 290.697929 638.869818 289.031262 636.937527 287.41147 634.963568 C 285.791679 632.98961 284.218762 630.979193 282.697928 628.92711 C 281.177095 626.880234 279.708345 624.791693 278.291678 622.666693 C 276.869803 620.546901 275.50522 618.390651 274.19272 616.197942 C 272.88022 614.010442 271.625011 611.791692 270.421886 609.536484 C 269.218761 607.286484 268.06772 605.005234 266.979178 602.697942 C 265.885428 600.39065 264.854178 598.057317 263.875011 595.697941 C 262.895844 593.338566 261.979178 590.958358 261.119803 588.552108 C 260.260428 586.151066 259.458344 583.729191 258.718761 581.286483 C 257.973969 578.838566 257.296886 576.380232 256.677094 573.906274 C 256.057302 571.427107 255.494802 568.937524 255.000011 566.432315 C 254.500011 563.932315 254.062511 561.41669 253.687511 558.890648 C 253.312511 556.364607 253.000011 553.833356 252.750011 551.29169 C 252.500011 548.750023 252.312511 546.203148 252.187511 543.656273 C 252.062511 541.104189 252.000011 538.552106 252.000011 536.000022 C 252.000011 533.447939 252.062511 530.895855 252.187511 528.343772 C 252.312511 525.796897 252.500011 523.250022 252.750011 520.708355 C 253.000011 518.166688 253.312511 515.635438 253.687511 513.109396 C 254.062511 510.583355 254.500011 508.06773 255.000011 505.567729 C 255.494802 503.062521 256.057302 500.572938 256.677094 498.093771 C 257.296886 495.619812 257.973969 493.156271 258.718761 490.713562 C 259.458344 488.270854 260.260428 485.848979 261.119803 483.442728 C 261.979178 481.041687 262.895844 478.661478 263.875011 476.302103 C 264.854178 473.942728 265.885428 471.609395 266.979178 469.302103 C 268.06772 466.994811 269.218761 464.713561 270.421886 462.463561 C 271.625011 460.208353 272.88022 457.989602 274.19272 455.802102 C 275.50522 453.609394 276.869803 451.453144 278.291678 449.333352 C 279.708345 447.208352 281.177095 445.11981 282.697928 443.072935 C 284.218762 441.020852 285.791679 439.010435 287.41147 437.036477 C 289.031262 435.062518 290.697929 433.130226 292.411471 431.234393 C 294.125012 429.343768 295.885429 427.494809 297.692721 425.692726 C 299.494804 423.885434 301.343763 422.125018 303.234388 420.411476 C 305.130221 418.697934 307.062513 417.031267 309.036471 415.411476 C 311.01043 413.791684 313.020846 412.218767 315.07293 410.697934 C 317.119805 409.1771 319.208347 407.70835 321.333347 406.291684 C 323.453138 404.869809 325.609389 403.505225 327.802097 402.192725 C 329.989597 400.880225 332.208347 399.625017 334.463556 398.421892 C 336.713556 397.218767 338.994806 396.067725 341.302098 394.979183 C 343.609389 393.885433 345.942723 392.854183 348.302098 391.875016 C 350.661473 390.89585 353.041681 389.979183 355.442723 389.119808 C 357.848973 388.260433 360.270848 387.458349 362.713557 386.718766 C 365.156265 385.973974 367.619807 385.296891 370.093765 384.677099 C 372.572932 384.057308 375.062516 383.494808 377.567724 383.000016 C 380.067724 382.500016 382.583349 382.062516 385.109391 381.687516 C 387.635433 381.312516 390.166683 381.000016 392.70835 380.750016 C 395.250016 380.500016 397.796892 380.312516 400.343767 380.187516 C 402.89585 380.062516 405.447934 380.000016 408.000017 380.000016 C 410.5521 380.000016 413.104184 380.062516 415.656267 380.187516 C 418.203142 380.312516 420.750018 380.500016 423.291684 380.750016 C 425.833351 381.000016 428.364601 381.312516 430.890643 381.687516 C 433.416685 382.062516 435.93231 382.500016 438.43231 383.000016 C 440.937518 383.494808 443.427102 384.057308 445.906269 384.677099 C 448.380227 385.296891 450.843769 385.973974 453.286477 386.718766 C 455.729186 387.458349 458.151061 388.260433 460.557311 389.119808 C 462.958353 389.979183 465.338561 390.89585 467.697936 391.875016 C 470.057311 392.854183 472.390645 393.885433 474.697936 394.979183 C 477.005228 396.067725 479.286478 397.218767 481.536478 398.421892 C 483.791687 399.625017 486.010437 400.880225 488.197937 402.192725 C 490.390645 403.505225 492.546896 404.869809 494.666687 406.291684 C 496.791687 407.70835 498.880229 409.1771 500.927104 410.697934 C 502.979188 412.218767 504.989604 413.791684 506.963563 415.411476 C 508.937521 417.031267 510.869813 418.697934 512.765646 420.411476 C 514.656271 422.125018 516.50523 423.885434 518.307313 425.692726 C 520.114605 427.494809 521.875022 429.343768 523.588563 431.234393 C 525.302105 433.130226 526.968772 435.062518 528.588564 437.036477 C 530.208355 439.010435 531.781272 441.020852 533.302106 443.072935 C 534.822939 445.11981 536.291689 447.208352 537.708356 449.333352 C 539.125022 451.453144 540.494814 453.609394 541.807314 455.802102 C 543.119814 457.989602 544.375023 460.208353 545.578148 462.463561 C 546.781273 464.713561 547.932314 466.994811 549.020856 469.302103 C 550.114606 471.609395 551.145856 473.942728 552.125023 476.302103 C 553.10419 478.661478 554.020856 481.041687 554.880231 483.442728 C 555.739606 485.848979 556.54169 488.270854 557.281273 490.713562 C 558.026065 493.156271 558.703148 495.619812 559.32294 498.093771 C 559.942732 500.572938 560.505232 503.062521 561.000023 505.567729 C 561.500023 508.06773 561.937523 510.583355 562.312523 513.109396 C 562.687523 515.635438 563.000023 518.166688 563.250023 520.708355 C 563.500023 523.250022 563.687523 525.796897 563.812523 528.343772 C 563.937523 530.895855 564.000024 533.447939 564.000024 536.000022 Z M 564.000024 536.000022 " transform="matrix(0.75, 0, 0, 0.75, 0, 0)"/>
<path fill-rule="nonzero" fill="rgb(100%, 100%, 100%)" fill-opacity="1" d="M 212.625 310.511719 L 398.238281 496.125 L 391.875 502.488281 L 206.261719 316.875 Z M 212.625 310.511719 "/>
<path fill-rule="nonzero" fill="rgb(100%, 100%, 100%)" fill-opacity="1" d="M 206.261719 496.125 L 391.875 310.511719 L 398.238281 316.875 L 212.625 502.488281 Z M 206.261719 496.125 "/>
<path fill-rule="nonzero" fill="rgb(100%, 100%, 100%)" fill-opacity="1" d="M 171 402 L 433.5 402 L 433.5 411 L 171 411 Z M 171 402 "/>
<path fill-rule="nonzero" fill="rgb(100%, 100%, 100%)" fill-opacity="1" d="M 306.75 275.25 L 306.75 537.75 L 297.75 537.75 L 297.75 275.25 Z M 306.75 275.25 "/>
</svg>
